HIERARCHY
ROOT hip
{
  OFFSET 0 0 0
  CHANNELS 6 Xposition Yposition Zposition Zrotation Yrotation Xrotation
  JOINT abdomen
  {
    OFFSET 0 20.6881 -0.73152
    CHANNELS 3 Zrotation Xrotation Yrotation
    JOINT chest
    {
      OFFSET 0 11.7043 -0.48768
      CHANNELS 3 Zrotation Xrotation Yrotation
      JOINT neck
      {
        OFFSET 0 22.1894 -2.19456
        CHANNELS 3 Zrotation Xrotation Yrotation
        JOINT head
        {
          OFFSET -0.24384 7.07133 1.2192
          CHANNELS 3 Zrotation Xrotation Yrotation
          JOINT leftEye
          {
            OFFSET 4.14528 8.04674 8.04672
            CHANNELS 3 Zrotation Xrotation Yrotation
            End Site
            {
              OFFSET 1 0 0
            }
          }
          JOINT rightEye
          {
            OFFSET -3.6576 8.04674 8.04672
            CHANNELS 3 Zrotation Xrotation Yrotation
            End Site
            {
              OFFSET 1 0 0
            }
          }
        }
      }
      JOINT rCollar
      {
        OFFSET -2.68224 19.2634 -4.8768
        CHANNELS 3 Zrotation Xrotation Yrotation
        JOINT rShldr
        {
          OFFSET -8.77824 -1.95073 1.46304
          CHANNELS 3 Zrotation Xrotation Yrotation
          JOINT rForeArm
          {
            OFFSET -28.1742 -1.7115 0.48768
            CHANNELS 3 Zrotation Xrotation Yrotation
            JOINT rHand
            {
              OFFSET -22.5879 0.773209 7.07136
              CHANNELS 3 Zrotation Xrotation Yrotation
              JOINT rThumb1
              {
                OFFSET -1.2192 -0.487915 3.41376
                CHANNELS 3 Zrotation Xrotation Yrotation
                JOINT rThumb2
                {
                  OFFSET -3.37035 -0.52449 3.41376
                  CHANNELS 3 Zrotation Xrotation Yrotation
                  End Site
                  {
                    OFFSET -1.78271 -1.18214 1.43049
                  }
                }
              }
              JOINT rIndex1
              {
                OFFSET -7.75947 0.938293 5.60832
                CHANNELS 3 Zrotation Xrotation Yrotation
                JOINT rIndex2
                {
                  OFFSET -2.54057 -0.884171 1.56538
                  CHANNELS 3 Zrotation Xrotation Yrotation
                  End Site
                  {
                    OFFSET -1.62519 -0.234802 1.16502
                  }
                }
              }
              JOINT rMid1
              {
                OFFSET -8.24714 1.18213 3.41376
                CHANNELS 3 Zrotation Xrotation Yrotation
                JOINT rMid2
                {
                  OFFSET -3.10165 -0.590103 1.0647
                  CHANNELS 3 Zrotation Xrotation Yrotation
                  End Site
                  {
                    OFFSET -2.48547 -0.328903 0.83742
                  }
                }
              }
              JOINT rRing1
              {
                OFFSET -8.82822 0.546677 1.51678
                CHANNELS 3 Zrotation Xrotation Yrotation
                JOINT rRing2
                {
                  OFFSET -2.60934 -0.819778 -0.0198488
                  CHANNELS 3 Zrotation Xrotation Yrotation
                  End Site
                  {
                    OFFSET -2.33842 -0.294052 0.168128
                  }
                }
              }
              JOINT rPinky1
              {
                OFFSET -8.27202 -0.0477905 -0.4584
                CHANNELS 3 Zrotation Xrotation Yrotation
                JOINT rPinky2
                {
                  OFFSET -1.82734 -0.647385 -0.700984
                  CHANNELS 3 Zrotation Xrotation Yrotation
                  End Site
                  {
                    OFFSET -1.69225 -0.51767 -0.607171
                  }
                }
              }
            }
          }
        }
      }
      JOINT lCollar
      {
        OFFSET 2.68224 19.2634 -4.8768
        CHANNELS 3 Zrotation Xrotation Yrotation
        JOINT lShldr
        {
          OFFSET 8.77824 -1.95073 1.46304
          CHANNELS 3 Zrotation Xrotation Yrotation
          JOINT lForeArm
          {
            OFFSET 28.1742 -1.7115 0.48768
            CHANNELS 3 Zrotation Xrotation Yrotation
            JOINT lHand
            {
              OFFSET 22.5879 0.773209 7.07136
              CHANNELS 3 Zrotation Xrotation Yrotation
              JOINT lThumb1
              {
                OFFSET 1.2192 -0.487915 3.41376
                CHANNELS 3 Zrotation Xrotation Yrotation
                JOINT lThumb2
                {
                  OFFSET 3.37035 -0.52449 3.41376
                  CHANNELS 3 Zrotation Xrotation Yrotation
                  End Site
                  {
                    OFFSET 1.78271 -1.18214 1.43049
                  }
                }
              }
              JOINT lIndex1
              {
                OFFSET 7.75947 0.938293 5.60832
                CHANNELS 3 Zrotation Xrotation Yrotation
                JOINT lIndex2
                {
                  OFFSET 2.54057 -0.884171 1.56538
                  CHANNELS 3 Zrotation Xrotation Yrotation
                  End Site
                  {
                    OFFSET 1.62519 -0.234802 1.16502
                  }
                }
              }
              JOINT lMid1
              {
                OFFSET 8.24714 1.18213 3.41376
                CHANNELS 3 Zrotation Xrotation Yrotation
                JOINT lMid2
                {
                  OFFSET 3.10165 -0.590103 1.0647
                  CHANNELS 3 Zrotation Xrotation Yrotation
                  End Site
                  {
                    OFFSET 2.48547 -0.328903 0.83742
                  }
                }
              }
              JOINT lRing1
              {
                OFFSET 8.82822 0.546677 1.51678
                CHANNELS 3 Zrotation Xrotation Yrotation
                JOINT lRing2
                {
                  OFFSET 2.60934 -0.819778 -0.0198488
                  CHANNELS 3 Zrotation Xrotation Yrotation
                  End Site
                  {
                    OFFSET 2.33842 -0.294052 0.168128
                  }
                }
              }
              JOINT lPinky1
              {
                OFFSET 8.27202 -0.0477905 -0.4584
                CHANNELS 3 Zrotation Xrotation Yrotation
                JOINT lPinky2
                {
                  OFFSET 1.82734 -0.647385 -0.700984
                  CHANNELS 3 Zrotation Xrotation Yrotation
                  End Site
                  {
                    OFFSET 1.69225 -0.51767 -0.607171
                  }
                }
              }
            }
          }
        }
      }
    }
  }
  JOINT rButtock
  {
    OFFSET -8.77824 4.35084 1.2192
    CHANNELS 3 Zrotation Xrotation Yrotation
    JOINT rThigh
    {
      OFFSET 0 -1.70687 -2.19456
      CHANNELS 3 Zrotation Xrotation Yrotation
      JOINT rShin
      {
        OFFSET 0 -36.8199 0.73152
        CHANNELS 3 Zrotation Xrotation Yrotation
        JOINT rFoot
        {
          OFFSET 0.73152 -45.1104 -5.12064
          CHANNELS 3 Zrotation Xrotation Yrotation
          End Site
          {
            OFFSET -1.1221 -3.69964 12.103
          }
        }
      }
    }
  }
  JOINT lButtock
  {
    OFFSET 8.77824 4.35084 1.2192
    CHANNELS 3 Zrotation Xrotation Yrotation
    JOINT lThigh
    {
      OFFSET 0 -1.70687 -2.19456
      CHANNELS 3 Zrotation Xrotation Yrotation
      JOINT lShin
      {
        OFFSET 0 -36.8199 0.73152
        CHANNELS 3 Zrotation Xrotation Yrotation
        JOINT lFoot
        {
          OFFSET -0.73152 -45.1104 -5.12064
          CHANNELS 3 Zrotation Xrotation Yrotation
          End Site
          {
            OFFSET 1.1221 -3.69964 12.103
          }
        }
      }
    }
  }
}
MOTION
Frames:	8
Frame Time:	0.00833333
63.562 85.5069 227.347 0.0 0.0 0.0 2.23537 -0.000465561 0.0604319 0.615696 0.00895991 0.106573 -6.62021e-15 0.0 9.93923e-17 -2.01518e-14 3.18055e-15 3.71168e-16 -0.0 0.0 0.0 -0.0 0.0 0.0 -3.28212e-15 -1.28123e-16 1.98785e-16 -6.75908e-14 -2.59041e-15 1.98785e-15 -1.21611e-12 2.68558e-13 2.22639e-14 -1.3804e-11 -8.29429e-13 2.13097e-13 -3.25979e-11 -1.21779e-12 5.1843e-13 -5.63141e-11 -2.10553e-12 8.70677e-13 -3.25939e-11 -1.21974e-12 5.08889e-13 7.73091 5.47488 0.417314 -3.25975e-11 -1.21795e-12 5.08889e-13 2.90554 0.965183 0.102902 -3.25965e-11 -1.21815e-12 5.04913e-13 10.2786 0.731801 0.0259123 -3.26078e-11 -1.21298e-12 5.02528e-13 2.22167 -0.733487 -0.20892 -3.3774e-15 -1.2657e-16 -9.93923e-17 -7.23913e-14 -2.37299e-15 0.0 -1.19882e-12 -4.50247e-13 5.08889e-14 -1.38527e-11 -9.47457e-14 1.68569e-13 -3.2655e-11 -1.18737e-12 4.89805e-13 -5.63781e-11 -2.04828e-12 8.57955e-13 -3.26595e-11 -1.18714e-12 4.96167e-13 -7.73091 5.47488 -0.417314 -3.26541e-11 -1.18784e-12 4.92986e-13 -2.90554 0.965183 -0.102902 -3.26615e-11 -1.18734e-12 4.94576e-13 -10.2786 0.731801 -0.0259123 -3.26482e-11 -1.18356e-12 4.92986e-13 -2.22167 -0.733487 0.20892 -2.03217e-16 0.0 -3.88251e-19 2.2187 -7.80083 -0.22471 0.0051743 8.55813 0.135443 -0.556233 -0.765916 0.0470416 2.03217e-16 0.0 3.88251e-19 1.19104 -1.92859 -0.00265962 0.00903889 -2.07859 0.0745202 0.506191 3.9985 -0.139454
63.4623 85.0628 221.128 -6.7929 5.1366 4.1462 3.10747 1.47216 1.32528 -0.177263 0.620688 0.476544 -1.2459 4.40835 -2.69609 3.59765 -3.63161 -4.92957 -0.0 0.0 0.0 -0.0 0.0 0.0 2.24075e-14 3.9017e-14 -1.53821e-14 20.4119 6.96688 -0.868531 -9.24134 -6.10526 11.7759 0.038058 4.32966 0.602235 -4.28125e-10 4.36767e-10 -2.0584e-11 -7.39726e-10 7.49844e-10 -3.20449e-11 -4.28121e-10 4.36766e-10 -2.05957e-11 7.73091 5.47488 0.417314 -4.28124e-10 4.36764e-10 -2.059e-11 2.90554 0.965183 0.102902 -4.28121e-10 4.36766e-10 -2.05958e-11 10.2786 0.731801 0.0259123 -4.28134e-10 4.36769e-10 -2.0597e-11 2.22167 -0.733487 -0.20892 2.23275e-14 3.90197e-14 -1.56407e-14 -19.8544 9.54698 1.5127 4.16227 -1.87988 -6.51334 -0.00565587 -1.67033 0.234391 -5.07211e-10 1.06053e-10 4.26823e-10 -8.77555e-10 1.82211e-10 7.37099e-10 -5.07217e-10 1.06054e-10 4.2683e-10 -7.73091 5.47488 -0.417314 -5.07211e-10 1.06052e-10 4.26824e-10 -2.90554 0.965183 -0.102902 -5.07218e-10 1.06053e-10 4.26827e-10 -10.2786 0.731801 -0.0259123 -5.07206e-10 1.06055e-10 4.26824e-10 -2.22167 -0.733487 0.20892 -2.03217e-16 0.0 -3.88251e-19 1.12291 -12.1582 -1.96935 0.04474 14.248 0.334402 -0.144345 -2.69254 -3.01872 2.03217e-16 0.0 3.88251e-19 1.42889 -7.20803 -0.998355 0.0583145 4.29032 0.0935872 0.365934 -0.474718 -3.67919
63.5062 84.62 220.856 -3.9237 5.0193 6.1841 3.98602 3.02812 2.66433 -1.02698 1.26642 0.867837 -2.11118 9.03874 -5.616 6.73568 -7.39786 -10.2356 -0.0 0.0 0.0 -0.0 0.0 0.0 4.97625e-14 8.46246e-14 -2.88766e-14 42.2174 14.3361 -1.82412 -16.3245 -11.7056 24.6406 -0.0217626 8.90345 1.25019 -9.04671e-10 9.40957e-10 -3.59609e-11 -1.56305e-09 1.61488e-09 -5.41666e-11 -9.04667e-10 9.40957e-10 -3.59753e-11 7.73091 5.47488 0.417314 -9.04668e-10 9.40951e-10 -3.59633e-11 2.90554 0.965183 0.102902 -9.04663e-10 9.40956e-10 -3.59713e-11 10.2786 0.731801 0.0259123 -9.04677e-10 9.40957e-10 -3.59713e-11 2.22167 -0.733487 -0.20892 4.97014e-14 8.46286e-14 -2.9094e-14 -41.4397 19.6044 3.28005 8.09752 -3.78382 -13.416 0.00327624 -3.44547 0.484167 -1.04659e-09 2.38064e-10 9.42757e-10 -1.81098e-09 4.09121e-10 1.62814e-09 -1.0466e-09 2.38066e-10 9.42765e-10 -7.73091 5.47488 -0.417314 -1.04659e-09 2.38062e-10 9.42756e-10 -2.90554 0.965183 -0.102902 -1.0466e-09 2.38063e-10 9.42761e-10 -10.2786 0.731801 -0.0259123 -1.04659e-09 2.38064e-10 9.42757e-10 -2.22167 -0.733487 0.20892 -2.03217e-16 0.0 -3.88251e-19 -0.296943 -16.6702 -3.89586 0.0402905 20.2332 0.558867 0.0660024 -4.67331 -6.28758 2.03217e-16 0.0 3.88251e-19 1.4939 -12.7975 -2.10101 0.104808 10.9744 0.115177 -0.38401 -5.16059 -7.40378
63.555 84.3243 220.524 -2.3896 5.1087 7.332 4.65628 4.40858 3.86513 -1.78689 1.84379 1.21703 -2.46945 13.1064 -8.28151 8.91418 -10.5702 -15.0197 -0.0 0.0 0.0 -0.0 0.0 0.0 7.37866e-14 1.17307e-13 -4.6544e-14 61.907 20.8807 -2.76829 -20.5103 -15.2077 36.6005 -0.164928 12.9832 1.84883 -1.21918e-09 1.31274e-09 -6.27887e-11 -2.10655e-09 2.25374e-09 -9.78759e-11 -1.21918e-09 1.31274e-09 -6.28048e-11 7.73091 5.47488 0.417314 -1.21918e-09 1.31273e-09 -6.27878e-11 2.90554 0.965183 0.102902 -1.21917e-09 1.31273e-09 -6.27974e-11 10.2786 0.731801 0.0259123 -1.21918e-09 1.31273e-09 -6.2796e-11 2.22167 -0.733487 -0.20892 7.37374e-14 1.17312e-13 -4.67233e-14 -61.2515 28.5554 5.09655 11.2275 -5.34873 -19.6184 0.0241641 -5.01066 0.70557 -1.45632e-09 3.20535e-10 1.27949e-09 -2.51991e-09 5.50731e-10 2.20958e-09 -1.45633e-09 3.20537e-10 1.2795e-09 -7.73091 5.47488 -0.417314 -1.45632e-09 3.20531e-10 1.27949e-09 -2.90554 0.965183 -0.102902 -1.45633e-09 3.20532e-10 1.27949e-09 -10.2786 0.731801 -0.0259123 -1.45632e-09 3.20533e-10 1.27949e-09 -2.22167 -0.733487 0.20892 -2.03217e-16 0.0 -3.88251e-19 -1.91584 -20.7991 -5.70298 -0.00747383 25.6263 0.781338 0.0604674 -6.47338 -9.19939 2.03217e-16 0.0 3.88251e-19 1.33016 -17.7456 -3.1144 0.143144 17.0281 0.13704 -1.5783 -9.25697 -10.9027
63.7034 84.2287 220.107 -2.1435 4.9975 7.2034 4.94393 5.35862 4.71066 -2.30562 2.25062 1.46047 -2.47751 15.8834 -10.1239 10.0526 -12.5792 -18.2707 -0.0 0.0 0.0 -0.0 0.0 0.0 8.94836e-14 1.17678e-13 -7.46436e-14 75.8267 25.3819 -3.53135 -22.4669 -16.4747 45.0707 -0.317683 15.8332 2.28425 -1.1286e-09 1.35349e-09 -1.18243e-10 -1.95047e-09 2.32719e-09 -1.95554e-10 -1.12859e-09 1.35349e-09 -1.18259e-10 7.73091 5.47488 0.417314 -1.12859e-09 1.35348e-09 -1.1824e-10 2.90554 0.965183 0.102902 -1.12859e-09 1.35349e-09 -1.1825e-10 10.2786 0.731801 0.0259123 -1.1286e-09 1.35348e-09 -1.18247e-10 2.22167 -0.733487 -0.20892 8.94285e-14 1.17683e-13 -7.47927e-14 -75.3478 34.8263 6.49704 13.219 -6.34122 -23.9955 0.0451227 -6.0513 0.853663 -1.54195e-09 2.79154e-10 1.16821e-09 -2.66758e-09 4.7909e-10 2.01702e-09 -1.54196e-09 2.79156e-10 1.16822e-09 -7.73091 5.47488 -0.417314 -1.54195e-09 2.79151e-10 1.16821e-09 -2.90554 0.965183 -0.102902 -1.54196e-09 2.79152e-10 1.16822e-09 -10.2786 0.731801 -0.0259123 -1.54195e-09 2.79152e-10 1.16821e-09 -2.22167 -0.733487 0.20892 -2.03217e-16 0.0 -3.88251e-19 -3.44121 -24.0333 -7.01863 -0.0694762 29.5399 0.958803 -0.0619544 -7.88783 -11.1771 2.03217e-16 0.0 3.88251e-19 1.02457 -21.1116 -3.78511 0.170671 21.5059 0.155348 -2.74352 -12.0347 -13.6777
63.8239 84.0373 219.739 -1.2121 4.9565 7.6564 4.67046 5.69414 5.05968 -2.46937 2.41194 1.55533 -2.42423 16.9401 -10.6827 10.333 -13.1866 -19.2301 -0.0 0.0 0.0 -0.0 0.0 0.0 9.37222e-14 6.43891e-14 -1.22496e-13 81.4412 27.027 -3.94469 -23.0463 -16.625 48.2739 -0.390122 16.9538 2.46029 -3.4885e-10 8.62714e-10 -2.4401e-10 -6.04463e-10 1.49385e-09 -4.22491e-10 -3.48848e-10 8.62714e-10 -2.44022e-10 7.73091 5.47488 0.417314 -3.48847e-10 8.62706e-10 -2.44005e-10 2.90554 0.965183 0.102902 -3.4884e-10 8.62713e-10 -2.44012e-10 10.2786 0.731801 0.0259123 -3.48852e-10 8.62712e-10 -2.44007e-10 2.22167 -0.733487 -0.20892 9.36284e-14 6.43909e-14 -1.22621e-13 -80.7148 37.444 6.88863 13.9827 -6.72182 -25.7737 0.0532631 -6.36813 0.898965 -1.10676e-09 1.24033e-11 2.81427e-10 -1.91318e-09 1.92326e-11 4.84554e-10 -1.10676e-09 1.24044e-11 2.81436e-10 -7.73091 5.47488 -0.417314 -1.10676e-09 1.23996e-11 2.81424e-10 -2.90554 0.965183 -0.102902 -1.10676e-09 1.24002e-11 2.81431e-10 -10.2786 0.731801 -0.0259123 -1.10675e-09 1.24006e-11 2.81423e-10 -2.22167 -0.733487 0.20892 -2.03217e-16 0.0 -3.88251e-19 -4.64637 -26.1406 -7.53967 -0.103204 31.43 1.05024 -0.162537 -8.84533 -11.7875 2.03217e-16 0.0 3.88251e-19 0.608141 -22.2983 -3.9173 0.188564 23.7003 0.172141 -3.35904 -13.0878 -15.3386
63.9648 83.8616 219.37 -0.5757 4.9281 7.899 4.01459 5.59325 5.05179 -2.3783 2.3983 1.54397 -2.42048 16.789 -10.2886 10.1152 -12.8457 -18.5191 -0.0 0.0 0.0 -0.0 0.0 0.0 8.97668e-14 -2.68275e-14 -1.84211e-13 81.0522 26.6374 -4.06754 -22.9148 -16.5059 47.6987 -0.382277 16.8406 2.44234 9.17346e-10 -4.47836e-12 -4.18558e-10 1.58146e-09 1.82826e-11 -7.39197e-10 9.17348e-10 -4.48008e-12 -4.18564e-10 7.73091 5.47488 0.417314 9.17347e-10 -4.48325e-12 -4.18554e-10 2.90554 0.965183 0.102902 9.17353e-10 -4.4782e-12 -4.18557e-10 10.2786 0.731801 0.0259123 9.17347e-10 -4.47903e-12 -4.18548e-10 2.22167 -0.733487 -0.20892 8.96112e-14 -2.68298e-14 -1.84317e-13 -79.6479 37.469 6.4104 13.9518 -6.72105 -25.6841 0.0496547 -6.1675 0.870382 -3.02741e-10 -4.12851e-10 -1.15224e-09 -5.19964e-10 -7.13653e-10 -1.99278e-09 -3.02749e-10 -4.12852e-10 -1.15223e-09 -7.73091 5.47488 -0.417314 -3.02742e-10 -4.12855e-10 -1.15224e-09 -2.90554 0.965183 -0.102902 -3.02751e-10 -4.12855e-10 -1.15223e-09 -10.2786 0.731801 -0.0259123 -3.0274e-10 -4.12854e-10 -1.15224e-09 -2.22167 -0.733487 0.20892 -2.03217e-16 0.0 -3.88251e-19 -5.53065 -27.4525 -7.44988 -0.102582 31.8727 1.0711 -0.190042 -9.48976 -11.413 2.03217e-16 0.0 3.88251e-19 0.158512 -21.9302 -3.64337 0.200898 24.2674 0.186635 -3.43695 -12.9519 -16.1583
64.1229 83.6882 219.003 -0.1579 4.9259 8.0359 3.34469 5.34618 4.88908 -2.20113 2.32578 1.4904 -2.41577 16.145 -9.51587 9.66145 -12.1032 -17.1472 -0.0 0.0 0.0 -0.0 0.0 0.0 8.22141e-14 -1.19738e-13 -2.43237e-13 78.2232 25.4495 -4.03516 -22.4756 -16.2431 45.5866 -0.343097 16.2533 2.34973 2.18286e-09 -9.133e-10 -5.64246e-10 3.76653e-09 -1.52984e-09 -1.00589e-09 2.18286e-09 -9.13302e-10 -5.64246e-10 7.73091 5.47488 0.417314 2.18286e-09 -9.13301e-10 -5.64243e-10 2.90554 0.965183 0.102902 2.18287e-09 -9.13298e-10 -5.64241e-10 10.2786 0.731801 0.0259123 2.18287e-09 -9.13298e-10 -5.64229e-10 2.22167 -0.733487 -0.20892 8.20007e-14 -1.19744e-13 -2.43333e-13 -76.0105 36.4034 5.54317 13.6052 -6.56929 -24.8466 0.0416042 -5.74338 0.809988 5.41491e-10 -8.1834e-10 -2.56736e-09 9.42644e-10 -1.41228e-09 -4.43798e-09 5.41486e-10 -8.18344e-10 -2.56736e-09 -7.73091 5.47488 -0.417314 5.41492e-10 -8.18344e-10 -2.56736e-09 -2.90554 0.965183 -0.102902 5.41483e-10 -8.18344e-10 -2.56736e-09 -10.2786 0.731801 -0.0259123 5.41494e-10 -8.18342e-10 -2.56737e-09 -2.22167 -0.733487 0.20892 -2.03217e-16 0.0 -3.88251e-19 -6.10558 -28.3146 -7.07906 -0.0853942 31.6616 1.0563 -0.164838 -9.95135 -10.6934 2.03217e-16 0.0 3.88251e-19 -0.130484 -20.9054 -3.17319 0.210578 24.3069 0.189933 -3.25188 -12.3457 -16.5887
